<svg xmlns="http://www.w3.org/2000/svg" height="30" version="1.1" width="30" viewBox="0 0 1024 1024" style=""><rect id="backgroundrect" width="100%" height="100%" x="0" y="0" fill="none" stroke="none"/><g class="currentLayer" style=""><title>Layer 1</title><path d="M512 1007.616A499.5072 499.5072 0 0 1 13.1072 508.7232 499.5072 499.5072 0 0 1 512 9.8304a499.4048 499.4048 0 0 1 498.7904 498.8928A499.4048 499.4048 0 0 1 512 1007.616zM512 35.4304A473.8048 473.8048 0 0 0 38.7072 508.7232 473.8048 473.8048 0 0 0 512 982.016a473.7024 473.7024 0 0 0 473.1904-473.2928A473.7024 473.7024 0 0 0 512 35.4304z" fill="#ffffff" id="svg_1" class="" stroke-opacity="1" stroke="#1aeb1a" fill-opacity="1"/><path d="M872.1408 494.1824H786.432a17.3056 17.3056 0 0 0-17.2032 17.1008v137.216a17.1008 17.1008 0 0 1-34.2016 0v-343.04a51.5072 51.5072 0 0 0-103.0144 0v480.1536a17.1008 17.1008 0 0 1-34.2016 0V356.9664a51.4048 51.4048 0 0 0-102.912 0v240.128a17.1008 17.1008 0 0 1-34.304 0V305.4592a51.4048 51.4048 0 0 0-102.8096 0v411.648a17.2032 17.2032 0 0 1-34.304 0v-274.432a51.4048 51.4048 0 0 0-103.0144 0v51.4048h-68.608c-9.4208 0-17.1008 7.7824-17.1008 17.1008s7.7824 17.1008 17.1008 17.1008h85.8112a17.2032 17.2032 0 0 0 17.1008-17.1008v-68.608a17.1008 17.1008 0 1 1 34.2016 0v274.432a51.5072 51.5072 0 0 0 102.8096 0v-411.648a17.1008 17.1008 0 0 1 34.2016 0v291.5328a51.4048 51.4048 0 0 0 102.8096 0V356.9664a17.1008 17.1008 0 0 1 34.2016 0v428.7488a51.4048 51.4048 0 1 0 102.8096 0v-480.256a17.1008 17.1008 0 1 1 34.304 0v343.04a51.5072 51.5072 0 0 0 102.912 0V528.4864h68.608c9.4208 0 17.2032-7.7824 17.2032-17.1008s-7.3728-17.2032-16.6912-17.2032z" fill="#1aeb1a" id="svg_2" class="" fill-opacity="1" stroke="#ffffff" stroke-opacity="1"/></g></svg>
